<mxfile host="app.diagrams.net" modified="2021-05-24T03:32:43.568Z" agent="5.0 (Windows NT 10.0; Win64; x64) AppleWebKit/537.36 (KHTML, like Gecko) Chrome/90.0.4430.212 Safari/537.36" etag="-ROQce_56cX6x00R01_d" version="14.7.0" type="github">
  <diagram id="CzjkhNz1-ZuIaBSinAAB" name="Page-1">
    <mxGraphModel dx="1038" dy="548" grid="1" gridSize="10" guides="1" tooltips="1" connect="1" arrows="1" fold="1" page="1" pageScale="1" pageWidth="827" pageHeight="1169" math="0" shadow="1">
      <root>
        <mxCell id="0" />
        <mxCell id="1" parent="0" />
        <mxCell id="ejklRJurTBJVBgiLnLY5-6" style="edgeStyle=orthogonalEdgeStyle;rounded=0;orthogonalLoop=1;jettySize=auto;html=1;exitX=0.5;exitY=1;exitDx=0;exitDy=0;entryX=-0.009;entryY=0.97;entryDx=0;entryDy=0;entryPerimeter=0;strokeWidth=2;" edge="1" parent="1" source="ejklRJurTBJVBgiLnLY5-1" target="ejklRJurTBJVBgiLnLY5-3">
          <mxGeometry relative="1" as="geometry" />
        </mxCell>
        <mxCell id="ejklRJurTBJVBgiLnLY5-1" value="require dependencies:&lt;br&gt;dotenv , mongoose&lt;br&gt;identify port,database&amp;nbsp;&amp;nbsp;&lt;br&gt;connect to mongo DB&amp;nbsp;" style="whiteSpace=wrap;html=1;aspect=fixed;strokeWidth=2;" vertex="1" parent="1">
          <mxGeometry x="50" y="80" width="190" height="190" as="geometry" />
        </mxCell>
        <mxCell id="ejklRJurTBJVBgiLnLY5-2" value="&lt;font style=&quot;font-size: 19px&quot;&gt;index.js&lt;/font&gt;" style="rounded=0;whiteSpace=wrap;html=1;strokeWidth=2;fillColor=#e1d5e7;strokeColor=#9673a6;" vertex="1" parent="1">
          <mxGeometry x="50" y="20" width="190" height="60" as="geometry" />
        </mxCell>
        <mxCell id="ejklRJurTBJVBgiLnLY5-13" style="edgeStyle=orthogonalEdgeStyle;rounded=0;orthogonalLoop=1;jettySize=auto;html=1;exitX=0.5;exitY=1;exitDx=0;exitDy=0;entryX=0.417;entryY=0;entryDx=0;entryDy=0;entryPerimeter=0;strokeWidth=2;" edge="1" parent="1" source="ejklRJurTBJVBgiLnLY5-3" target="ejklRJurTBJVBgiLnLY5-14">
          <mxGeometry relative="1" as="geometry">
            <mxPoint x="370" y="330" as="targetPoint" />
          </mxGeometry>
        </mxCell>
        <mxCell id="ejklRJurTBJVBgiLnLY5-3" value="require dependencies:&lt;br&gt;express ,&lt;span style=&quot;color: rgb(206 , 145 , 120) ; background-color: rgb(30 , 30 , 30) ; font-family: &amp;#34;consolas&amp;#34; , &amp;#34;courier new&amp;#34; , monospace ; font-size: 14px&quot;&gt;cors&lt;/span&gt;&lt;br&gt;&lt;br&gt;require&amp;nbsp;&lt;span style=&quot;color: rgb(79 , 193 , 255) ; background-color: rgb(30 , 30 , 30) ; font-family: &amp;#34;consolas&amp;#34; , &amp;#34;courier new&amp;#34; , monospace ; font-size: 14px&quot;&gt;notFoundHandler&lt;br&gt;&lt;/span&gt;&lt;span style=&quot;color: rgb(79 , 193 , 255) ; background-color: rgb(30 , 30 , 30) ; font-family: &amp;#34;consolas&amp;#34; , &amp;#34;courier new&amp;#34; , monospace ; font-size: 14px&quot;&gt;errorHandler&lt;/span&gt;&lt;span&gt;&amp;nbsp;&lt;/span&gt;" style="whiteSpace=wrap;html=1;aspect=fixed;strokeWidth=2;" vertex="1" parent="1">
          <mxGeometry x="260" y="80" width="220" height="220" as="geometry" />
        </mxCell>
        <mxCell id="ejklRJurTBJVBgiLnLY5-4" value="&lt;font style=&quot;font-size: 19px&quot;&gt;server.js&lt;/font&gt;" style="rounded=0;whiteSpace=wrap;html=1;strokeWidth=2;fillColor=#e1d5e7;strokeColor=#9673a6;" vertex="1" parent="1">
          <mxGeometry x="260" y="20" width="220" height="60" as="geometry" />
        </mxCell>
        <mxCell id="ejklRJurTBJVBgiLnLY5-7" value="require&amp;nbsp;" style="text;html=1;align=center;verticalAlign=middle;resizable=0;points=[];autosize=1;strokeColor=none;" vertex="1" parent="1">
          <mxGeometry x="160" y="270" width="60" height="20" as="geometry" />
        </mxCell>
        <mxCell id="ejklRJurTBJVBgiLnLY5-11" style="edgeStyle=orthogonalEdgeStyle;rounded=0;orthogonalLoop=1;jettySize=auto;html=1;exitX=1;exitY=0.5;exitDx=0;exitDy=0;entryX=0;entryY=0.5;entryDx=0;entryDy=0;strokeWidth=2;" edge="1" parent="1" source="ejklRJurTBJVBgiLnLY5-8" target="ejklRJurTBJVBgiLnLY5-10">
          <mxGeometry relative="1" as="geometry" />
        </mxCell>
        <mxCell id="ejklRJurTBJVBgiLnLY5-8" value="/signup with method post&amp;nbsp;&lt;br&gt;&lt;br&gt;/signin with method post&amp;nbsp;" style="whiteSpace=wrap;html=1;aspect=fixed;strokeWidth=2;" vertex="1" parent="1">
          <mxGeometry x="560" y="80" width="220" height="220" as="geometry" />
        </mxCell>
        <mxCell id="ejklRJurTBJVBgiLnLY5-9" value="&lt;font style=&quot;font-size: 17px&quot;&gt;RIUTES&lt;/font&gt;" style="rounded=0;whiteSpace=wrap;html=1;strokeWidth=2;fillColor=#e1d5e7;strokeColor=#9673a6;" vertex="1" parent="1">
          <mxGeometry x="560" y="20" width="220" height="60" as="geometry" />
        </mxCell>
        <mxCell id="ejklRJurTBJVBgiLnLY5-10" value="Models/router.js&lt;br&gt;schema" style="rounded=0;whiteSpace=wrap;html=1;strokeWidth=2;" vertex="1" parent="1">
          <mxGeometry x="820" y="145" width="120" height="60" as="geometry" />
        </mxCell>
        <mxCell id="ejklRJurTBJVBgiLnLY5-12" value="&lt;span style=&quot;color: rgb(0, 0, 0); font-family: helvetica; font-size: 12px; font-style: normal; font-weight: 400; letter-spacing: normal; text-align: center; text-indent: 0px; text-transform: none; word-spacing: 0px; background-color: rgb(248, 249, 250); display: inline; float: none;&quot;&gt;require&amp;nbsp;&lt;/span&gt;" style="text;whiteSpace=wrap;html=1;strokeWidth=2;" vertex="1" parent="1">
          <mxGeometry x="780" y="205" width="70" height="30" as="geometry" />
        </mxCell>
        <mxCell id="ejklRJurTBJVBgiLnLY5-14" value="Auth middleware/basic auth&amp;nbsp;" style="rounded=0;whiteSpace=wrap;html=1;strokeWidth=2;" vertex="1" parent="1">
          <mxGeometry x="320" y="340" width="120" height="60" as="geometry" />
        </mxCell>
        <mxCell id="ejklRJurTBJVBgiLnLY5-15" value="&lt;span style=&quot;color: rgb(0, 0, 0); font-family: helvetica; font-size: 12px; font-style: normal; font-weight: 400; letter-spacing: normal; text-align: center; text-indent: 0px; text-transform: none; word-spacing: 0px; background-color: rgb(248, 249, 250); display: inline; float: none;&quot;&gt;require&amp;nbsp;&lt;/span&gt;" style="text;whiteSpace=wrap;html=1;strokeWidth=2;" vertex="1" parent="1">
          <mxGeometry x="320" y="310" width="70" height="30" as="geometry" />
        </mxCell>
        <mxCell id="ejklRJurTBJVBgiLnLY5-16" value="&lt;br&gt;servere.test..js&lt;br&gt;500.test&lt;br&gt;basic-auth.test" style="whiteSpace=wrap;html=1;aspect=fixed;strokeWidth=2;" vertex="1" parent="1">
          <mxGeometry x="560" y="390" width="220" height="220" as="geometry" />
        </mxCell>
        <mxCell id="ejklRJurTBJVBgiLnLY5-18" style="edgeStyle=orthogonalEdgeStyle;rounded=0;orthogonalLoop=1;jettySize=auto;html=1;exitX=-0.005;exitY=0.295;exitDx=0;exitDy=0;entryX=1;entryY=0.5;entryDx=0;entryDy=0;exitPerimeter=0;strokeWidth=2;" edge="1" parent="1" source="ejklRJurTBJVBgiLnLY5-16" target="ejklRJurTBJVBgiLnLY5-14">
          <mxGeometry relative="1" as="geometry" />
        </mxCell>
        <mxCell id="ejklRJurTBJVBgiLnLY5-19" style="edgeStyle=orthogonalEdgeStyle;rounded=0;orthogonalLoop=1;jettySize=auto;html=1;exitX=0;exitY=0.5;exitDx=0;exitDy=0;entryX=1;entryY=0.636;entryDx=0;entryDy=0;entryPerimeter=0;strokeWidth=2;" edge="1" parent="1" source="ejklRJurTBJVBgiLnLY5-17" target="ejklRJurTBJVBgiLnLY5-3">
          <mxGeometry relative="1" as="geometry" />
        </mxCell>
        <mxCell id="ejklRJurTBJVBgiLnLY5-17" value="&lt;font style=&quot;font-size: 17px&quot;&gt;--test--&lt;/font&gt;" style="rounded=0;whiteSpace=wrap;html=1;strokeWidth=2;fillColor=#e1d5e7;strokeColor=#9673a6;" vertex="1" parent="1">
          <mxGeometry x="560" y="330" width="220" height="60" as="geometry" />
        </mxCell>
        <mxCell id="ejklRJurTBJVBgiLnLY5-20" value="&lt;span style=&quot;color: rgb(0, 0, 0); font-family: helvetica; font-size: 12px; font-style: normal; font-weight: 400; letter-spacing: normal; text-align: center; text-indent: 0px; text-transform: none; word-spacing: 0px; background-color: rgb(248, 249, 250); display: inline; float: none;&quot;&gt;require&amp;nbsp;&lt;/span&gt;" style="text;whiteSpace=wrap;html=1;strokeWidth=2;" vertex="1" parent="1">
          <mxGeometry x="470" y="300" width="70" height="30" as="geometry" />
        </mxCell>
        <mxCell id="ejklRJurTBJVBgiLnLY5-21" value="&lt;span style=&quot;color: rgb(0, 0, 0); font-family: helvetica; font-size: 12px; font-style: normal; font-weight: 400; letter-spacing: normal; text-align: center; text-indent: 0px; text-transform: none; word-spacing: 0px; background-color: rgb(248, 249, 250); display: inline; float: none;&quot;&gt;require&amp;nbsp;&lt;/span&gt;" style="text;whiteSpace=wrap;html=1;strokeWidth=2;" vertex="1" parent="1">
          <mxGeometry x="440" y="380" width="70" height="30" as="geometry" />
        </mxCell>
      </root>
    </mxGraphModel>
  </diagram>
</mxfile>
